# xmcd
#
# Track frame offsets:
# 183
# 21913
# 37425
# 59898
# 70375
# 77998
# 83383
#
# Disc length: 1200 seconds
#
# Revision: 2
# Processed by: cddbd v1.5.2PL0 Copyright (c) Steve Scherf et al.
# Submitted via: Axialis_AX_CDPlayer 2.6
#
DISCID=6204ae07
DTITLE=ICE MC - Happy Weekend (Remix)
DYEAR=1991
DGENRE=
TTITLE0=Happy Weekend (Work Remix)
TTITLE1=Happy Weekend (909 Heavy Mix)
TTITLE2=Happy Weekend (Jump Swing Remix)
TTITLE3=Happy Weekend (Work Groove)
TTITLE4=Happy Weekend (Dub Reprise)
TTITLE5=Happy Weekend (Swing Groove)
TTITLE6=Happy Weekend (Happypella)
EXTD=
EXTT0=
EXTT1=
EXTT2=
EXTT3=
EXTT4=
EXTT5=
EXTT6=
PLAYORDER=
